<?xml version="1.0" encoding="UTF-8"?>
<svg xmlns="http://www.w3.org/2000/svg" version="1.1" xmlns:xlink="http://www.w3.org/1999/xlink" viewBox="0 0 512 512">
  <!-- Generator: Adobe Illustrator 29.1.0, SVG Export Plug-In . SVG Version: 2.1.0 Build 142)  -->
  <defs>
    <style>
      .st0 {
        fill: url(#linear-gradient2);
      }

      .st1 {
        fill: #4aabe1;
      }

      .st2 {
        fill: #fff;
        mix-blend-mode: overlay;
        opacity: .2;
      }

      .st3 {
        fill: url(#linear-gradient1);
      }

      .st4 {
        isolation: isolate;
      }

      .st5 {
        fill: #154d82;
      }

      .st6 {
        fill: #2a78bd;
      }

      .st7 {
        fill: url(#linear-gradient);
      }
    </style>
    <linearGradient id="linear-gradient" x1="326" y1="463.1" x2="186" y2="220.6" gradientUnits="userSpaceOnUse">
      <stop offset="0" stop-color="#000" stop-opacity="0"/>
      <stop offset="1" stop-color="#000" stop-opacity=".3"/>
    </linearGradient>
    <linearGradient id="linear-gradient1" x1="326" y1="377.3" x2="186" y2="134.7" gradientUnits="userSpaceOnUse">
      <stop offset="0" stop-color="#000" stop-opacity="0"/>
      <stop offset="1" stop-color="#000" stop-opacity=".3"/>
    </linearGradient>
    <linearGradient id="linear-gradient2" x1="326" y1="292.3" x2="186" y2="49.8" gradientUnits="userSpaceOnUse">
      <stop offset="0" stop-color="#000" stop-opacity="0"/>
      <stop offset="1" stop-color="#000" stop-opacity=".3"/>
    </linearGradient>
  </defs>
  <g class="st4">
    <g id="Layer_1">
      <g>
        <path class="st1" d="M234.7,461.2L27.6,370.9c-36.8-16-36.8-42.2,0-58.3l207.1-90.2c13.6-5.9,29-5.9,42.6,0l207.1,90.2c36.8,16,36.8,42.2,0,58.3l-207.1,90.2c-13.6,5.9-29,5.9-42.6,0Z"/>
        <path class="st7" d="M234.7,461.2L27.6,370.9c-36.8-16-36.8-42.2,0-58.3l207.1-90.2c13.6-5.9,29-5.9,42.6,0l207.1,90.2c36.8,16,36.8,42.2,0,58.3l-207.1,90.2c-13.6,5.9-29,5.9-42.6,0Z"/>
      </g>
      <path class="st2" d="M484.4,312.7l-207.1-90.2c-13.1-5.7-28-5.9-41.2-.6l192.7,83.9c36.8,16,36.8,42.2,0,58.3l-207.1,90.2c-.5.2-1,.4-1.4.6l14.4,6.3c13.6,5.9,29,5.9,42.6,0l207.1-90.2c36.8-16,36.8-42.2,0-58.3Z"/>
      <g>
        <path class="st6" d="M234.7,375.3L27.6,285.1c-36.8-16-36.8-42.2,0-58.3l207.1-90.2c13.6-5.9,29-5.9,42.6,0l207.1,90.2c36.8,16,36.8,42.2,0,58.3l-207.1,90.2c-13.6,5.9-29,5.9-42.6,0Z"/>
        <path class="st3" d="M234.7,375.3L27.6,285.1c-36.8-16-36.8-42.2,0-58.3l207.1-90.2c13.6-5.9,29-5.9,42.6,0l207.1,90.2c36.8,16,36.8,42.2,0,58.3l-207.1,90.2c-13.6,5.9-29,5.9-42.6,0Z"/>
      </g>
      <path class="st2" d="M484.4,226.9l-207.1-90.2c-13.1-5.7-28-5.9-41.2-.6l192.7,83.9c36.8,16,36.8,42.2,0,58.3l-207.1,90.2c-.5.2-1,.4-1.4.6l14.4,6.3c13.6,5.9,29,5.9,42.6,0l207.1-90.2c36.8-16,36.8-42.2,0-58.3Z"/>
      <g>
        <path class="st5" d="M234.7,290.4L27.6,200.2c-36.8-16-36.8-42.2,0-58.3L234.7,51.7c13.6-5.9,29-5.9,42.6,0l207.1,90.2c36.8,16,36.8,42.2,0,58.3l-207.1,90.2c-13.6,5.9-29,5.9-42.6,0Z"/>
        <path class="st0" d="M234.7,290.4L27.6,200.2c-36.8-16-36.8-42.2,0-58.3L234.7,51.7c13.6-5.9,29-5.9,42.6,0l207.1,90.2c36.8,16,36.8,42.2,0,58.3l-207.1,90.2c-13.6,5.9-29,5.9-42.6,0Z"/>
      </g>
      <path class="st2" d="M484.4,141.9l-207.1-90.2c-13.1-5.7-28-5.9-41.2-.6l192.7,83.9c36.8,16,36.8,42.2,0,58.3l-207.1,90.2c-.5.2-1,.4-1.4.6l14.4,6.3c13.6,5.9,29,5.9,42.6,0l207.1-90.2c36.8-16,36.8-42.2,0-58.3Z"/>
    </g>
  </g>
</svg>